<svg width="1200" height="430" viewBox="0 0 1200 430" fill="none" xmlns="http://www.w3.org/2000/svg">
  <defs>
    <linearGradient id="bg" x1="0" y1="0" x2="1200" y2="430" gradientUnits="userSpaceOnUse">
      <stop stop-color="#050816"/>
      <stop offset="0.48" stop-color="#0C1024"/>
      <stop offset="1" stop-color="#07151A"/>
    </linearGradient>
    <linearGradient id="accent" x1="110" y1="70" x2="1060" y2="350" gradientUnits="userSpaceOnUse">
      <stop stop-color="#A78BFA"/>
      <stop offset="0.48" stop-color="#F472B6"/>
      <stop offset="1" stop-color="#22D3EE"/>
    </linearGradient>
    <linearGradient id="panel" x1="760" y1="70" x2="1110" y2="350" gradientUnits="userSpaceOnUse">
      <stop stop-color="#FFFFFF" stop-opacity="0.075"/>
      <stop offset="1" stop-color="#FFFFFF" stop-opacity="0.025"/>
    </linearGradient>
    <radialGradient id="glowA" cx="0" cy="0" r="1" gradientTransform="translate(220 86) rotate(28) scale(390 245)" gradientUnits="userSpaceOnUse">
      <stop stop-color="#8B5CF6" stop-opacity="0.28"/>
      <stop offset="1" stop-color="#8B5CF6" stop-opacity="0"/>
    </radialGradient>
    <radialGradient id="glowB" cx="0" cy="0" r="1" gradientTransform="translate(1070 354) rotate(-147) scale(390 220)" gradientUnits="userSpaceOnUse">
      <stop stop-color="#06B6D4" stop-opacity="0.22"/>
      <stop offset="1" stop-color="#06B6D4" stop-opacity="0"/>
    </radialGradient>
    <pattern id="grid" width="36" height="36" patternUnits="userSpaceOnUse">
      <path d="M36 0H0V36" fill="none" stroke="#94A3B8" stroke-opacity="0.05"/>
    </pattern>
    <filter id="softGlow" x="-30%" y="-60%" width="160%" height="220%">
      <feGaussianBlur stdDeviation="8" result="b"/>
      <feMerge><feMergeNode in="b"/><feMergeNode in="SourceGraphic"/></feMerge>
    </filter>
  </defs>

  <rect width="1200" height="430" rx="30" fill="url(#bg)"/>
  <rect width="1200" height="430" rx="30" fill="url(#grid)"/>
  <rect width="1200" height="430" rx="30" fill="url(#glowA)"/>
  <rect width="1200" height="430" rx="30" fill="url(#glowB)"/>

  <g transform="translate(70 64)">
    <rect width="84" height="84" rx="22" fill="#FFFFFF" fill-opacity="0.055" stroke="#A78BFA" stroke-opacity="0.5"/>
    <path d="M29 28L16 42L29 56M55 28L68 42L55 56M48 20L37 64" stroke="url(#accent)" stroke-width="5" stroke-linecap="round" stroke-linejoin="round"/>
  </g>

  <text x="180" y="94" fill="#94A3B8" font-family="Inter,Segoe UI,Arial,sans-serif" font-size="17" font-weight="700" letter-spacing="3.7">SOFTWARE ENGINEER · FULL-STACK · AI SYSTEMS</text>
  <text x="70" y="194" fill="url(#accent)" font-family="Inter,Segoe UI,Arial,sans-serif" font-size="66" font-weight="850" letter-spacing="-2" filter="url(#softGlow)">THOTA NAVADEEP</text>
  <text x="72" y="239" fill="#D1D5DB" font-family="Inter,Segoe UI,Arial,sans-serif" font-size="24" font-weight="500">Building reliable products where AI has memory, state, evidence, and policy.</text>

  <g transform="translate(72 278)">
    <rect width="202" height="42" rx="21" fill="#FFFFFF" fill-opacity="0.055" stroke="#FFFFFF" stroke-opacity="0.08"/>
    <circle cx="22" cy="21" r="5" fill="#34D399"/>
    <text x="40" y="27" fill="#CBD5E1" font-family="Inter,Segoe UI,Arial,sans-serif" font-size="15" font-weight="600">Graduate SWE · 2027</text>

    <rect x="216" width="188" height="42" rx="21" fill="#FFFFFF" fill-opacity="0.055" stroke="#FFFFFF" stroke-opacity="0.08"/>
    <circle cx="238" cy="21" r="5" fill="#A78BFA"/>
    <text x="256" y="27" fill="#CBD5E1" font-family="Inter,Segoe UI,Arial,sans-serif" font-size="15" font-weight="600">6 flagship builds</text>

    <rect x="418" width="242" height="42" rx="21" fill="#FFFFFF" fill-opacity="0.055" stroke="#FFFFFF" stroke-opacity="0.08"/>
    <circle cx="440" cy="21" r="5" fill="#F472B6"/>
    <text x="458" y="27" fill="#CBD5E1" font-family="Inter,Segoe UI,Arial,sans-serif" font-size="15" font-weight="600">Amazon ML · Rank 1325</text>
  </g>

  <g transform="translate(752 60)">
    <rect width="378" height="300" rx="28" fill="url(#panel)" stroke="#64748B" stroke-opacity="0.28"/>
    <circle cx="28" cy="28" r="5" fill="#FB7185"/><circle cx="47" cy="28" r="5" fill="#FBBF24"/><circle cx="66" cy="28" r="5" fill="#34D399"/>
    <text x="92" y="34" fill="#64748B" font-family="ui-monospace,SFMono-Regular,Consolas,monospace" font-size="13">navadeep@github:~</text>

    <text x="30" y="78" fill="#A78BFA" font-family="ui-monospace,SFMono-Regular,Consolas,monospace" font-size="14">$ current_focus</text>
    <text x="30" y="104" fill="#E2E8F0" font-family="ui-monospace,SFMono-Regular,Consolas,monospace" font-size="14">backend · system design · agents</text>

    <text x="30" y="146" fill="#22D3EE" font-family="ui-monospace,SFMono-Regular,Consolas,monospace" font-size="14">$ engineering_style</text>
    <text x="30" y="172" fill="#E2E8F0" font-family="ui-monospace,SFMono-Regular,Consolas,monospace" font-size="14">state → evidence → policy → outcome</text>

    <text x="30" y="214" fill="#F472B6" font-family="ui-monospace,SFMono-Regular,Consolas,monospace" font-size="14">$ shipping</text>
    <text x="30" y="240" fill="#E2E8F0" font-family="ui-monospace,SFMono-Regular,Consolas,monospace" font-size="14">full-stack products + AI systems</text>

    <rect x="30" y="263" width="318" height="2" rx="1" fill="url(#accent)" fill-opacity="0.7"/>
    <circle cx="335" cy="280" r="4" fill="#22D3EE"><animate attributeName="opacity" values="0.25;1;0.25" dur="2.4s" repeatCount="indefinite"/></circle>
    <text x="30" y="287" fill="#64748B" font-family="ui-monospace,SFMono-Regular,Consolas,monospace" font-size="12">BUILD STATUS: ACTIVE</text>
  </g>

  <g opacity="0.42" stroke="url(#accent)" stroke-width="1.5">
    <path d="M38 370H154L180 344H256"/>
    <path d="M985 30H1070L1096 56H1162"/>
    <circle cx="38" cy="370" r="4" fill="#A78BFA" stroke="none"/>
    <circle cx="256" cy="344" r="4" fill="#F472B6" stroke="none"/>
    <circle cx="985" cy="30" r="4" fill="#22D3EE" stroke="none"/>
  </g>

  <rect x="0.75" y="0.75" width="1198.5" height="428.5" rx="29.25" stroke="url(#accent)" stroke-opacity="0.30" stroke-width="1.5"/>
</svg>